<?xml version="1.0" encoding="utf-8"?>
<!-- Generator: Adobe Illustrator 16.0.3, SVG Export Plug-In . SVG Version: 6.00 Build 0)  -->
<!DOCTYPE svg PUBLIC "-//W3C//DTD SVG 1.1//EN" "http://www.w3.org/Graphics/SVG/1.1/DTD/svg11.dtd">
<svg version="1.1" id="Capa_1" xmlns="http://www.w3.org/2000/svg" xmlns:xlink="http://www.w3.org/1999/xlink" x="0px" y="0px"
	 width="1920px" height="1080px" viewBox="0 0 1920 1080" enable-background="new 0 0 1920 1080" xml:space="preserve">
<g>
	<rect x="-6.284" y="-11.722" fill="#3A0A1E" width="1933.334" height="1102.178"/>
	<g>
		<g>
			
				<linearGradient id="SVGID_1_" gradientUnits="userSpaceOnUse" x1="-230.1396" y1="-134.8174" x2="865.6376" y2="960.9599" gradientTransform="matrix(1 0 0 -1 219.1001 951.9004)">
				<stop  offset="0.0049" style="stop-color:#9B2147;stop-opacity:0.4"/>
				<stop  offset="0.66" style="stop-color:#A01F42;stop-opacity:0"/>
			</linearGradient>
			<path fill="url(#SVGID_1_)" d="M385.925,819.836c-1.217,3.274-1.676,6.212-0.87,7.858c5.52,6.652,19.229-11.868,23.142-16.308
				c24.493-30.322,40.734-66.774,41.42-106.738v-0.527c-0.113-55.201-41.882-98.288-98.59-100.365
				c-10.637-0.65-19.328,3.746-7.459,12.821c64.403,38.754,76.606,119.051,50.3,184.724
				C391.488,807.558,388.279,813.706,385.925,819.836z M188.594,509.456c0.488,10.66,4.802,20.476,9.023,30.102
				c6.998,15.599,12.451,32.014,19.002,47.831c1.835,4.945,8.195,15.138,9.362,3.471c-5.224-65.793-23.976-100.046,20.326-158.566
				c2.4-3.813,3.73-6.842,2.826-8.043l-0.13-0.158c-1.008-1.2-4.343-0.386-8.389,1.466
				C208.457,440.439,187.348,474.188,188.594,509.456z M373.974,893.983c72.413-35.075,143.265-124.408,143.974-207.272v-0.528
				c0.646-63.784-36.363-130.815-98.805-151.956c-43.737-15.305-94.822-0.628-123.557,35.976
				c-11.528,13.508-21.011,35.735,5.479,17.88c13.526-8.737,28.173-13.268,43.793-13.441c33.68-0.303,64.698,15.87,87.105,40.34
				c27.451,29.325,41.95,74.362,31.318,117.339c-10.75,43.783-31.906,84.652-59.313,120.48
				c-8.395,10.802-17.97,20.633-28.224,29.685C371.535,886.019,361.122,897.465,373.974,893.983z M283.627,939.453
				c12.631-5.067,24.004-13.432,33.772-22.796c39.012-38.476,63.057-90.437,62.833-145.403c0.362-27.11-11.068-52.192-17.722-77.977
				c-4.915-16.207-3.45-33.614-8.998-49.604c-15.47-40.81-53.372-8.214-55.651,20.877c-5.302,50.02,45.36,70.201,39.893,139.856
				c-2.913,34.617-15.552,67.741-34.476,96.954c-7.835,11.452-17.182,22.393-26.83,32.369c-1.585,1.531-3.95,4.374-3.837,5.638
				l0.016,0.218C273.353,942.381,278.727,941.189,283.627,939.453z M880.384,535.117l-0.005-0.519
				c-0.521-31.433-12.135-62.328-34.088-85.016c-7.206-8.146-17.852-12.906-11.698,4.191c2.714,7.359,5.484,15.304,7.277,23.14
				c30.287,119.225-71.802,224.158-179.995,255.688c-9.444,3.682-13.796,11.028-1.411,12.624c8.363,0.672,17.47-0.725,25.962-2.008
				C786.735,726.612,878.841,640.148,880.384,535.117z M528.291,775.891c49.422-10.741,95.312,24.224,143.756,24.909h0.559
				c19.419,0.037,38.99-6.25,55.595-16.416c8.736-5.402,17.536-11.589,24.45-19.04c9.081-9.919,5.494-13.438-7.995-9.19
				c-54.569,22.025-89.823,6.79-143.659-6.082c-14.398-3.48-29.547-6.214-44.304-4.29c-13.541,1.614-27.897,7.905-36.716,17.895
				C510.458,774.638,517.97,777.28,528.291,775.891z M539.603,327.433c-34.898-22.121-79.564-20.204-118.156-10.965
				c-4.056,1.099-11.127,2.921-13.115,6.526l-0.09,0.257c0.146,5.637,19.677,3.398,24.72,3.927
				c33.627,1.285,63.014,18.68,93.04,32.074C561.92,374.497,568.503,345.743,539.603,327.433z M776.666,186.512
				c-55.92,45.513-107.052,140.412-60.919,207.38c11.683,18.346,28.44,34.616,33.249,56.399c1.157,8.449,3.495,23.884,9.454,9.341
				c12.648-49.327-14.862-96.581-24.172-144.223c-10.149-44.013,15.576-85.531,43.875-117.098
				c4.275-5.474,14.757-14.218,14.492-19.549l-0.074-0.138C788.99,176.227,780.347,183.696,776.666,186.512z M755.479,171.757
				c-32.399,8.338-58.719,31.863-78.644,57.762c-45.236,58.601-57.521,154.966-13.64,217.426
				c15.993,22.75,38.691,39.691,66.872,44.563c6.077,0.757,11.826,1.103,12.75-2.524c0.097-4.759-7.576-8.817-11.394-11.889
				c-41.197-26.767-59.167-74.489-58.773-123.92l0.007-0.508c2.92-64.719,33.121-124.329,84.988-164.164
				c3.636-2.903,8.214-6.186,11.084-9.447C775.762,170.069,762.783,169.818,755.479,171.757z M581.239,728.154
				c3.913,1.873,10.352-6.804,14.316-10.157c29.15-30.273,72.73-33.717,111.494-42.527
				c55.291-12.778,113.427-50.731,124.487-109.901c1.978-14.465-7.585-29.451-22.408-22.281c-9.364,4.71-15.78,13.381-22.45,21.661
				c-14.739,19.654-31.047,39.05-53.362,50.254c-17.184,9.187-36.575,13.751-54.823,19.873
				c-18.561,6.078-36.575,14.316-52.416,25.854c-18.676,13.514-34.787,31.549-43.167,53.271c-1.762,4.229-3.521,12.709-1.785,13.841
				L581.239,728.154z M790.594,775.295c60.178,11.226,114.498-48.798,116.723-108.623l-0.021-0.521
				c-2.167-20.104-12.36,9.196-15.832,13.68c-4.467,7.474-9.852,14.277-15.968,20.439c-48.21,46.63-61.782,14.798-90.671,29.134
				C764.131,741.53,766.993,769.309,790.594,775.295z M560.483,405.195c-0.126-9.056,0.584-20.416-5.82-27.172
				c-5.475-5.923-14.066-5.77-20.122,0.374c-10.971,11.225-14.753,27.267-14.784,42.472c0.938,58.354,34.323,107.481,83.279,137.912
				c8.049,5.157,16.907,8.772,26.153,11.065c15.617,3.574,12.085-5.646,2.676-11.912c-48.548-35.499-71.45-93.702-71.373-152.211
				L560.483,405.195z M275.684,414.582c-30.387,34.556-48.432,80.664-38.951,127.173c1.728,8.175,4.545,15.992,7.596,23.738
				c1.36,3.782,4.999,9.926,7.354,9.671c3.263,0.522,3.867-8.435,3.51-12.298c-5.3-82.562,51.953-155.588,123.74-190.461
				c14.43-7.375,29.796-12.156,45.106-17.156c3.948-1.355,7.668-3.132,9.273-4.914c4.702-5.036-7.975-6.093-12.699-5.687
				l-0.547,0.016C363.848,346.589,312.897,370.707,275.684,414.582z M173.885,421.054c11.645-2.134,22.893-4.369,34.359-6.611
				c62.418-8.781,105.938-36.022,122.185-99.324c3.958-14.358,5.121-29.172,6.721-43.903c0.291-2.524,0.25-5.95-1.705-7.475
				c-3.201-2.301-6.39,0.803-8.593,4.094c-21.641,32.352-48.159,58.504-82.292,75.123c-11.558,6.087-25.027,9.424-37.17,14.699
				c-21.381,9.917-40.337,29.969-43.303,54.098l-0.032,0.492C163.648,419.877,166.405,422.621,173.885,421.054z M1050.533,243.243
				c0.523-8.379-17.387,1.557-21.893,1.979c-10.487,2.821-21.452,2.387-32.25,1.979c-22.451-1.444-44.316,2.599-63.114,15.174
				c-32.277,21.812,5.15,28.607,25.894,29.846l0.565,0.022C990.273,293.55,1039.35,272.823,1050.533,243.243z M446.569,92.583
				l-0.143-0.032c-0.677-0.09-1.249,0.65-1.662,2.083c-1.441,6.329-0.892,13.258-1.668,19.908
				c-1.345,15.322-6.388,30.451-14.708,43.329c-14.951,22.736-33.125,43.399-51.702,63.046c-6.064,6.561-12.095,13.234-16.43,21.126
				c-16.098,30.009,3.66,49.843,32.465,30.319c48.88-38.211,70.198-107.147,58.8-167.746
				C450.753,100.983,449.059,93.855,446.569,92.583z M347.78,335.09c-1.673,3.565-6.082,12.429-1.357,13.694
				c4.877-0.23,9.919-7.7,13.998-11.738c12.957-13.749,27.934-24.282,45.209-31.465c21.698-9.313,46.024-11.67,69.205-7.498
				c15.476,2.36,30.721,8.366,46.237,8.4c28.283,1.039,51.398-18.81,65.491-41.769c3.97-5.959,6.342-14.669-2.719-11.725
				c-4.4,1.639-8.968,4.853-13.339,7.01c-9.409,4.929-20.395,5.237-31.259,5.085c-19.402-0.37-39.547-4.969-58.461-6.485
				l-0.513-0.022C420.173,257.241,370.778,284.379,347.78,335.09z M536.719,723.188c23.1,9.542,42.073-39.495,54.05-54.349
				c25.745-39.449,62.083-54.565,107.7-58.015c7.163-0.825,14.658-1.889,21.117-3.43c8.655-2.009,14.113-4.501,13.646-6.515
				l-0.024-0.122c-0.392-1.465-3.74-2.643-9.13-3.329c-14.824-1.426-34.57-1.449-50.461-1.33
				c-52.096-0.829-101.731,27.454-129.196,71.185C535.402,681.658,519.866,710.197,536.719,723.188z M891.815,158.697l-0.499-0.009
				c-54.877-0.881-99.25,57.872-98.578,130.852c0.095,5.503,0.854,16.982,5.101,18.582c6.515-1.004,6.121-25.073,8.504-31.998
				c9.807-48.213,44.567-72.588,90.081-81.329C923.447,186.725,920.832,158.612,891.815,158.697z M951.664,576.915
				c-4.933-21.533-21.443-38.053-32.423-56.696c-10.581-16.06-19.783-33.145-28.687-50.289c-2.218-3.896-4.93-11.767-8.319-13.655
				l-0.183-0.057c-4.768,0.875-0.983,16.187-0.289,20.503c6.166,29.447,12.459,58.886,18.9,88.295
				c2.266,10.04,5.033,20.295,10.877,28.855C930.173,621.713,957.557,608.899,951.664,576.915z M92.466,194.916
				c0.33,2.463,0.813,4.959,1.409,7.445c9.077,38.974,42.109,59.628,79.352,60.575l0.537,0.007
				c15.042,0.043,30.399-5.149,41.971-14.782c5.278-3.979,14.356-15.495,2.424-16.968c-34.624-0.23-66.771-22.174-84.728-51.126
				c-5.919-8.276-10.004-24.332-22.16-24.445C94.708,158.057,90.409,180.795,92.466,194.916z M90.655,565.561
				c-36.847,33.048-63.227,76.737-67.712,126.569c-0.318,14.027-0.604,30.405,7.537,42.555c4.255,5.716,11.399,9.225,18.948,9.399
				c14.196,0.363,23.454-13.508,27.983-25.286c9.843-35.048,0.196-72.316,9.406-107.52c5.113-20.62,14.693-39.721,27.289-56.807
				c2.459-3.303,7.761-10.287,6.521-12.632l-0.097-0.19c-0.883-1.698-5.135,0.891-6.774,2.386
				C105.963,551.01,98.564,558.615,90.655,565.561z M961.219,472.436c0.619-5.702,0.531-13.113,1.104-19.215
				c3.285-34.503,26.604-61.781,41.502-92.049c3.779-7.543,7.201-15.843,7.941-24.215c2.481-23.148-19.428-31.303-36.252-16.823
				c-31.773,29.199-30.912,82.707-26.235,122.443l0.074,0.566c1.291,10.034,3.738,28.689,7.641,34.917
				c0.438,0.748,0.994,1.474,1.718,1.611C959.904,479.781,960.738,477.076,961.219,472.436z M951.82,499.277
				c-24.629-45.549-36.239-104.193-13.967-152.438c6.057-13.544,16.977-24.372,26.914-35.252
				c11.979-14.134-2.519-14.512-13.264-10.978c-9.131,2.876-17.824,7.724-25.385,13.556c-26.888,20.353-36.567,55.137-35.92,87.897
				l0.014,0.55c0.786,19.91,4.905,40.213,12.598,58.817c7.799,18.22,20.281,33.98,34.93,48.079
				C956.769,527.37,965.428,523.681,951.82,499.277z M1034.757,568.543c17.972,8.353,33.935,19.888,49.983,33.68
				c0-20.687,0.109-41.146-0.146-59.896c-10.693-8.011-19.275-12.767-27.797-14.963c-8.436-2.168-17.512-1.798-26.27-2.824
				c-19.457-2.279-36.961-8.329-48.729-25.487c-0.778-1.143-4.056-1.612-4.826-1.382c-8.47,2.47,4.349,22.65,9.312,29.981
				C998.504,545.68,1014.898,559.323,1034.757,568.543z M1035.779,451.779c-0.164,1.102,0.647,2.197,1.765,2.208
				c0.192,0,0.37-0.035,0.522-0.109c13.529-7.368,31.563-9.219,46.498-10.7c0.313-7.467,0.145-20.309,0.145-27.827
				C1062.441,417.083,1038.041,436.121,1035.779,451.779z M1011.067,396.503c-15.11,17.168-26.577,36.333-30.743,59.134
				c-0.175,0.973,0.063,2.023,0.475,3.11c1.158,3.006,4.786,4.304,7.537,2.621c0.781-0.475,1.494-1.018,2.058-1.674
				c4.564-5.359,8.165-11.568,12.864-16.793c22.02-24.467,48.42-41.813,81.174-49.203v-41.572
				C1050.309,360.519,1028.646,376.519,1011.067,396.503z M1034.547,498.808c15.141-4.99,29.098-0.679,42.92,5.095
				c2.121,0.886,4.371,2.146,6.941,2.985v-42.183c-17.389-0.449-31.258,5.924-43.564,16.271c-4.004,3.366-7.434,7.506-10.691,11.626
				C1027.609,495.811,1028.551,501.666,1034.547,498.808z M630.005,249.012c3.1-5.843,2.114-9.742-4.002-5.336
				c-34.171,37.093-45.512,88.923-46.388,138.633l0.009,0.529c-0.474,84.608,51.562,197.392,149.74,188.973
				c42.063-3.551,82.931-38.505,88.555-81.412c2.065-16.325-0.895-33.01-9.259-47.063c-2.696-4.815-9.306-11.921-13.414-7.359
				c-3.41,3.749-3.906,9.332-5.138,14.125c-3.327,16.007-8.629,31.906-18.69,45.375c-33.827,45.628-88.892,16.907-115.787-20.348
				c-33.197-42.765-49.273-96.022-48.683-150.021C606.66,297.709,614.258,271.647,630.005,249.012z M138.203,90.832
				c-14.541-10.11-24.914,5.159-22.68,20.02c0.787,7.33,3.308,14.304,6.704,21.149c51.41,98.844,189.871,110.755,267.232,35.409
				c9.949-9.583,19.491-20.042,26.829-31.769c3.354-5.567,4.957-9.78,4.262-10.926l-0.053-0.085
				c-0.788-1.158-4.113,1.078-8.872,5.502c-4.448,4.074-9.709,9.699-15.018,14.381c-50.715,44.116-120.259,46.964-179.27,17.135
				c-16.861-8.18-32.443-18.774-45.672-32.131C159.343,118.362,151.431,100.933,138.203,90.832z M373.06,63.89
				c13.361-15.167,9.799-41.489-13.017-43.11c-19.231,0.576-32.482,17.385-48.254,26.206c-27.195,17.131-58.129,20.777-89.43,15.152
				c-3.88-0.458-12.729-2.704-15.235-0.135l-0.116,0.221c-0.249,4.649,7.362,8.653,10.919,11.029
				C263.212,99.012,334.734,105.171,373.06,63.89z M462.941,231.571c4.011,2.95,13.753,6.026,22.84,8.179
				c27.591,6.739,57.005,11.089,84.822,3.306c52.018-15.636,86.024-63.448,135.482-84.299c18.111-7.775,37.279-11.923,57.101-12.132
				c8.819-0.215,17.938,0.954,26.767,1.264c6.114,0.184,10.296-0.391,11.125-2.037c2.328-2.078-7.734-8.631-13.611-11.145
				c-36.836-16.321-80.129-20.582-118.231-6.542c-70.598,25.464-104.298,99.691-186.771,95.792l-0.565,0.016
				C473.055,224.104,454.163,224.766,462.941,231.571z M481.858,187.539c-5.982,7.746-14.254,24.282,2.769,22.031
				c41.475-11.325,76.703-38.448,110.752-63.563c25.31-19.31,53.912-34.521,86.029-38.591c6.063-1.224,17.274-0.976,20.871-4.572
				l0.074-0.139c-0.043-5.603-19.631-7.84-25.112-8.61C600.797,84.901,524.349,123.16,481.858,187.539z M118.188,340.309
				c9.836,0.467,16.359-8.833,12.599-17.872c-3.728-9.65-12.652-16.749-19.282-24.529c-15.583-17.14-27.979-36.288-35.227-58.034
				c-1.466-4.919-8.534-21.023-10.194-9.022c1.903,31.57,15.131,61.658,29.749,89.578c4.611,8.675,11.325,19.057,21.88,19.852
				L118.188,340.309z M755.005,110.353c8.808,5.42,8.506-19.857,8.668-24.793l0.008-0.6c-0.547-13.386,0.186-32.864-13.252-39.96
				c-3.094-1.269-6.545-1.094-9.224,0.822c-10.056,9.285-1.02,24.108,1.996,35.564C746.333,89.824,749.444,105.454,755.005,110.353z
				 M649.002,43.891l-0.56,0.004c-40.528,1.806-78.058,16.853-102.832,53.371c-8.184,11.691-8.953,21.448,6.614,9.856
				c50.632-36.702,132.908-47.869,180.618-2.128c4.947,3.925,10.322,4.88,9.916-2.475c-1.661-11.332-9.479-22.077-17.244-30.392
				C706.058,51.903,677.448,44.166,649.002,43.891z M217.044,143.996c26.285,14.291,58.3,16.006,86.899,9.733
				c29.37-6.86,57.834-22.378,76.1-46.815c8.403-12.181,0.067-11.857-9.406-6.596c-28.733,15.913-63.401,23.432-95.485,14.86
				c-13.624-3.394-27.276-9.618-41.334-10.313l-0.521-0.021C205.882,103.832,189.107,128.37,217.044,143.996z M939.831,961.097
				c2.782,7.959,10.733,0.168,13.045-4.166c43.223-61.126-28.732-147.628-93.627-113.63c-5.851,2.746-28.305,20.301-13.199,23.34
				c49.487,4.776,91.404,33.498,93.27,84.537l0.007,0.48C939.418,954.771,939.009,958.017,939.831,961.097z M53.388,148.599
				l-0.125-0.146c-0.996-1.096-3.563,0.379-6.386,3.088c-10.235,10.211-17.788,22.694-21.577,36.768
				c-15.495,56.059-3.608,108.678,33.326,153.004c11.147,13.347,23.288,25.626,35.23,38.089c2.942,3.233,8.456,7.047,12.352,4.244
				c9.209-8.802-6.011-27.693-10.471-36.874c-6.455-11.189-13.977-21.776-20.393-32.955
				c-24.309-42.986-40.561-95.035-26.579-144.483C49.927,163.334,55.062,153.958,53.388,148.599z M979.85,928.277l0.096,0.089
				c5.168,0.146,11.084-24.686,13.293-30.131c7.355-24.37,16.586-48.963,16.27-74.715c-0.238-11.649-3.14-24.969-12.576-32.467
				c-13.095-10.314-23.739,1.765-24.027,15.636c-0.641,9.703,1.363,19.449,3.1,28.971c4.855,24.507,7.218,49.085,4.271,73.827
				C979.846,914.559,977.848,924.753,979.85,928.277z M1047.828,862.719c-0.97,3.602-3.063,14.601,0.6,14.156
				c2.822-0.325,6.968-7.203,8.379-10.941c16.484-38.959,19.299-80.315,7.814-122.286c-13.135-50.995-46.713-93.819-96.984-115.189
				c-7.451-2.814-17.173-7.874-24.631-6.272l-0.32,0.114c-13.097,6.788,18.874,43.528,24.859,51.348
				c17.566,21.662,34.871,44.04,50.558,67.287C1040.879,777.23,1058.901,819.39,1047.828,862.719z M486.176,880.823
				c11.62-6.696,24.569-11.55,38.173-14.087c3.474-0.847,8.147-1.534,10.474-4.116c2.499-5.464-12.992-4.405-17.403-4.499
				l-0.513,0.008c-46.917,0.906-95.496,13.535-130.53,45.415c-40.121,41.896-83.643,63.306-141.285,71.273
				c-14.306,3.659-9.75,8.938,1.304,8.968c78.804-0.59,157.778-29.687,215.053-83.866
				C468.976,892.716,477.205,885.923,486.176,880.823z M285.325,998.408l-0.497,0.07c-4.023,0.28-9.663,3.08-7.927,5.729
				c3.896,4.948,14.315,6.16,20.173,9.301c21.02,9.159,32.385,30.82,49.123,45.453c8.282,8.116,24.025,10.048,27.421-3.541
				c2.106-9.612-3.353-19.541-8.938-27.15C346.928,1004.661,313.563,998.14,285.325,998.408z M850.843,24.35l-0.532,0.008
				c-24.941,0.599-46.399,15.201-62.913,34.046c-3.451,4.135-7.791,9.333-8.319,14.693c0.987,9.798,18.879-7.093,23.204-8.823
				c7.344-4.454,15.327-7.759,23.603-10.032c24.376-6.736,42.89-3.974,64.979,6.952c10.325,3.565,11.394-4.953,7.291-11.938
				C889.285,33.751,869.025,24.16,850.843,24.35z M772.969,263.644c-0.913-5.504-2.085-9.687-3.56-10.441l-0.138-0.07
				c-1.184-0.511-2.543,1.15-3.786,4.418c-1.164,3.036-2.145,7.346-2.69,10.918c-9.644,57.553,14.456,119.763,62.27,154.059
				c12.513,9.65,33.346,19.059,46.238,5.649c9.467-10.298,7.763-28.417-0.106-39.515c-16.201-21.662-42.118-33.583-60.982-52.737
				C789.458,316.547,776.125,291.943,772.969,263.644z M894.888,223.078c4.21-3.767,13.869-8.78,14.631-13.962l-0.044-0.146
				c-5.35-4.735-28.141,5.586-34.562,8.704c-32.535,15.712-57.502,52.465-54.798,88.766c1.646,18.846,12.652,35.383,28.421,45.8
				c10.474,7.233,28.678,14.655,39.356,5.382c10.478-9.753,1.245-21.681-9.324-26.804c-13.973-6.912-25.748-19.084-27.574-35.032
				C847.927,265.239,872.435,240.467,894.888,223.078z M397.919,509.145c7.282,0.045,14.617-0.461,21.832,0.279
				c25.17,2.589,47.43,11.024,64.159,31.447c14.451,17.628,26.305,36.302,31.847,58.777c3.761,15.237,16.824,26.019,29.749,26.229
				c14.097,0.229,27.082-9.919,32.539-24.793c3.974-10.811,1.357-20.665-2.733-30.712c-21.032-51.585-71.905-87.198-125.148-87.422
				c-19.873-0.086-38.605,4.25-55.558,14.838c-2.851,1.782-6.899,5.478-6.566,7.729
				C388.778,510.647,394.066,509.114,397.919,509.145z M35.339,830.375c27.09-16.016,59.574-6.262,88.612-14.397
				c12.655-2.969,28.773-11.161,30.068-25.771c1.484-14.698-15.197-24.58-28.363-24.514l-0.507-0.01
				c-34.889,3.384-67.625,27.627-92.255,51.645c-4.998,5.232-11.111,10.142-14.845,16.225
				C13.296,844.719,31.729,831.999,35.339,830.375z M397.792,434.383c35.282-9.125,78.957-17.253,96.808-53.167
				c9.593-20.792-3.451-39.331-26.06-30.712c-12.982,5.237-19.475,19.004-29.435,28.197c-19.289,17.885-47.686,18.529-70.729,29.277
				c-46.331,19.48-87.489,63.103-92.838,114.366l0.009,0.489c0.354,10.282,4.612,8.39,6.288,0.067
				c4.122-22.778,19.856-41.707,37.27-56.045C341.439,448.202,370.258,441.309,397.792,434.383z M315.811,525.579
				c9.212,4.647,20.631-1.822,28.798-6.498c38.085-28.418,74.477-60.71,124.806-61.182c8.198-0.293,16.218,0.79,24.267,2.171
				c4.014,0.632,8.453,1.58,11.595,0.464c6.039-2.218,1.487-8.113-3.203-9.43l-0.527-0.202
				c-58.08-18.616-169.908,2.041-192.054,59.648C308.204,516.228,310.755,522.624,315.811,525.579z M133.862,559.987
				c-11.816,2.959-19.343,46.66-20.262,58.316c-2.336,57.034-11.238,98.6-48.51,143.81c-7.658,7.882-10.377,18.037,3.534,10.253
				c49.407-27.837,85.019-76.747,85.358-133.65v-0.545c-0.119-25.097-4.376-49.19-12.364-69.863
				C140.233,564.894,138.188,559.608,133.862,559.987z M944.25,191.646c15.087-7.662,32.408-8.517,48.711-4.639
				c8.051,1.187,18.114,6.912,25.795,3.36c4.997-4.49-1.629-12.07-7.578-17.201c-11.447-9.329-25.813-14.483-40.479-14.755
				l-0.558-0.015c-17.922-0.366-37.839,6.831-45.192,24.557c-1.598,4.294-3.115,10.9,0.956,14.024
				C930.855,199.973,939.102,193.965,944.25,191.646z M224.399,308.457c20.486-14.656,44.287-24.186,66.347-36.47
				c19.04-11.045,36.333-24.763,51.916-40.492c4.016-4.562,11.495-10.69,12.626-16.278l-0.025-0.182
				c-0.157-0.85-1.14-0.974-2.727-0.344c-3.662,1.491-7.292,4.754-10.521,7.337c-12.262,10.134-25.807,17.781-40.292,23.135
				c-17.254,6.726-36.359,8.47-54.14,13.288c-32.208,8.545-60.611,23.427-84.552,48.546c-23.752,24.826-42.538,54.262-39.767,90.604
				c0.763,10.864,3.033,21.47,5.202,32.088c3.337,17.055,8.983,13.219,11.152-0.831
				C150.175,379.003,183.353,336.721,224.399,308.457z M856.479,60.484c-10.865-0.229-22.545,1.201-31.48,8.064
				c-7.799,5.585-10.706,17.501-1.016,22.082c3.258,1.67,8.131,1.704,11.84,1.186c19.907-2.621,40.782-8.931,58.99,0.267
				c3.535,1.427,14.844,9.316,15.19,1.772c-0.31-3.314-2.671-6.333-4.711-8.886c-12.338-14.26-29.556-23.587-48.354-24.472
				L856.479,60.484z M913.702,244.541c2.776,7.824,21.123-1.984,27.758-2.037c40.414-6.136,84.882-0.818,120.97-23.331
				c6.516-4.22,15.496-9.008,18.904-15.824l0.107-0.293c1.432-8.352-15.266,0.122-19.814,1.734
				c-5.217,2.037-10.563,3.813-16.006,5.144c-14.774,3.666-30.15,3.834-45.119,1.38c-13.697-2.046-27.791-7.625-41.385-6.237
				c-12.611,0.973-23.702,8.232-32.109,17.365C922.035,228.149,912.793,237.182,913.702,244.541z M233.698,874.824
				c-16.587,14.532-37.926,23.127-58.874,29.406c-3.489,1.11-13.471,3.314-10.754,8.373c3.759,4.009,15.599,3.33,21.957,3.588h0.502
				c74.606,0.251,122.608-64.993,120.013-133.92c-0.73-58.377-75.397-110.306-48.728-167.354c3.262-5.95,6.166-17.44-4.789-13.544
				c-7.051,3.404-11.837,10.381-16.612,16.39c-26.728,33.518-14.418,76.305,5.405,109.87c15.091,24.802,30.937,52.354,24.663,82.214
				C261.113,833.592,250.77,857.216,233.698,874.824z M1055.608,193.52c7.521-1.603,20.808-4.819,28.944-6.885v-12.985
				c-17.486,4.062-28.442,3.658-42.213,4.029c-2.37,0.064-6.057,2.084-6.66,3.986c-0.738,2.308,0.361,6.132,2.056,8.104
				C1042.506,195.321,1049.287,194.87,1055.608,193.52z M752.59,864.191c2.568,0.324,5.454,0.159,8.232-0.15
				c84.53-8.669,182.732-68.887,187.167-159.724l0.001-0.561c0.251-19.122-3.515-39.732-11.528-54.706
				c-1.695-3.014-4.361-7.649-8.135-7.233c-2.739,0.212-4.125,5.685-4.042,9.552c2.729,42.739-11.513,82.853-38.883,115.802
				c-33.567,42.049-81.256,68.69-131.585,85.143C746.496,855.132,743.02,862.796,752.59,864.191z M25.178,442.155
				c20.459,2.042,38.387,10.236,53.47,23.322c0.361,0.31,0.769,0.559,1.222,0.777c3.311,1.576,7.281-1.059,6.769-4.675
				c-0.06-0.391-0.149-0.759-0.317-1.11c-2.025-4.404-4.696-8.719-7.945-12.468c-13.167-15.258-30.818-24.468-50.874-30.079
				c-12.577-3.525-25.399-5.207-38.52-2.573v27.828C1.063,442.733,13.296,440.968,25.178,442.155z M6.135,629.745
				c0.119,0.369,0.29,0.725,0.513,1.057c2.012,2.977,6.736,2.621,8.127-0.688c0.136-0.323,0.226-0.664,0.254-1.005
				c0.938-11.188,1.856-22.428,1.752-33.642c-0.183-19.51-8.548-35.765-21.777-49.673c-1.521-1.61-3.981-2.335-6.023-3.468v59.702
				C-2.503,609.53,2.921,618.889,6.135,629.745z M16.343,533.393c2.01,4.941,5.242,9.713,8.908,13.969
				c8.955,10.415,23.739,9.409,30.97-2.005c5.666-8.946,7.223-18.527,4.91-28.539c-6.326-27.455-38.46-48.065-72.149-52.099v42.27
				C2.708,512.437,11.423,521.361,16.343,533.393z M11.83,734.759c-0.921-21.948-5.09-36.25-14.088-56.11
				c-1.48-3.249-6.524-12.204-8.759-15.101v192.363c1.645-2.546,3.686-4.917,4.878-7.658C9.667,811.99,13.443,773.771,11.83,734.759
				z M16.901,1038.645c-1.644-1.167-4.287-1.826-6.265-1.533c-0.861,0.129-1.917,3.325-1.709,4.992
				c1.998,15.141-6.234,25.813-19.944,27.498v17.139H32.62c0-6.19,0.516-11.48-0.104-16.654
				C31.067,1058.04,27.909,1046.511,16.901,1038.645z M83.224,925.523c6.506,3.624,12.095,8.931,18.618,12.546
				c11.445,6.343,25.345,5.017,34.187-2.725c10.013-8.765,10.013-19.372,6.786-31.478c-3.269-12.26-12.056-17.997-22.325-22.513
				c-17.562-7.731-36.208-9.384-55.116-8.813c-26.847,0.814-52.397,6.96-76.393,19.184v19.903c1.738-0.195,3.487-0.316,5.226-0.588
				C25.464,906.124,55.35,910.037,83.224,925.523z M90.382,857.492c11.837,2.289,24.205,4.27,36.086,3.317
				c27.599-2.212,47.688-18.074,63.605-39.713c0.142-0.188,0.257-0.402,0.347-0.628c1.179-2.981-2.145-5.956-5.126-4.803
				c-0.364,0.145-0.704,0.312-1.019,0.521c-9.96,6.503-20.538,11.657-32.503,12.181c-15.412,0.671-30.874,0.231-46.305,0.525
				c-13.228,0.252-26.638-0.421-39.627,1.559c-31.452,4.776-54.432,24.8-76.858,45.358v5.301c3.731-1.873,7.731-3.339,11.127-5.693
				C27.623,856.324,57.688,851.166,90.382,857.492z M53.036,971.063c4.517,6.761,7.867,14.288,12.157,21.202
				c5.289,8.504,12.864,13.5,23.226,12.038c9.954-1.407,16.543-7.688,18.904-17.149c1.269-5.088,0.969-11.021-0.264-16.187
				c-2.912-12.163-11.226-20.883-21.011-27.996c-29.34-21.284-62.197-26.52-97.066-20.401v23.18
				C-4.042,946.646,34.3,945.719,53.036,971.063z M85.824-9.044H57.054C54.247,54.908,34.523,93.887-4.223,111.819
				c-2.192,1.01-4.529,1.684-6.795,2.514v49.085C50.98,146.526,102.415,57.722,85.824-9.044z M35.596,46.587
				c0.077-0.16,0.136-0.326,0.198-0.499c1.224-3.861-3.353-7.142-6.737-4.937c-0.058,0.043-0.135,0.081-0.192,0.125
				C16.723,49.97,3.568,54.63-11.018,54.204v36.248C11.359,84.531,25.419,67.94,35.596,46.587z M63.624,170.319v0.541
				c0.15,11.13,2.597,23.669,7.503,33.541c4.019,7.488,8.851,6.119,8.505-3.303c-6.101-66.873,28.749-78.385,25.335-113.359
				c-0.212-9.571-10.149-27.949-14.134-9.121c-1.752,18.455-13.711,33.936-19.522,51.133
				C66.703,143.076,63.894,156.764,63.624,170.319z M14.819,165.638c-0.56,0.111-1.104,0.245-1.648,0.403
				c-10.463,3.092-13.663,4.433-24.1,7.609v12.985c12.852-3.131,19.692-7.92,28.467-15.866c0.012-0.017,0.031-0.034,0.043-0.048
				C19.772,168.693,17.75,165.038,14.819,165.638z M3.568,211.827c-4.969,5.105-9.785,10.042-14.586,14.974v45.965
				c8.942-11.251,19.933-42.774,20.761-58.212C9.926,211.224,5.893,209.431,3.568,211.827z M58.866,407.577
				c20.685,14.438,35.621,33.972,48.233,55.529c0.119,0.202,0.253,0.398,0.406,0.586c2.752,3.367,8.496,1.602,8.805-2.739
				c0.021-0.355,0.006-0.708-0.059-1.048c-9.683-48.601-36.29-83.982-82.556-103.188c-14.191-5.898-29.295-8.079-44.711-4.592
				v41.125C14.91,385.202,37.71,392.827,58.866,407.577z M13.716,15.714c9.878-5.029,18.758-9.535,18.89-24.618
				c-14.587,0-29.038-0.14-43.625-0.14V22.71C-1.67,22.985,6.031,19.624,13.716,15.714z M853.398,1031.112
				c4.99,2.52,9.906,5.337,14.879,7.845c3.29,1.619,7.228,2.988,9.412,1.91c3.759-1.973,0.356-7.628-1.761-10.398
				c-22.909-29.363-52.228-46.613-84.664-48.102l-0.542-0.015c-92.392-2.477-106.639,107.476-81.34,80.913
				C742.439,1014.25,801.854,1003.976,853.398,1031.112z M610.889,924.612c3.046-3.079,6.991-5.343,8.501-9.133
				c1.253-3.54-2.067-5.308-5.729-4.349c-12.753,3.231-23.353,11.666-34.869,17.75c-16.345,8.69-30.45,20.31-42.603,33.983
				c-11.318,11.907-18.787,26.948-18.485,43.884v0.507c-1.313,37.002,50.918,50.938,54.438,8.003
				C569.756,980.744,586.206,947.975,610.889,924.612z M616.173,972.899c-0.027-0.267-0.089-0.537-0.158-0.792
				c-1.165-4.466-6.879-5.43-9.384-1.566c-0.3,0.47-0.547,0.959-0.697,1.482c-3.353,11.385-7.048,22.848-8.557,34.539
				c-3.459,26.742-8.988,43.965,15.332,75.57c1.231,1.949,1.97,2.664,3.85,4.531c23.821,0,48.639,0.027,72.866,0.027
				c-9.745-6.656-18.61-12.118-26.938-19.184C633.418,1042.791,621.373,1009.489,616.173,972.899z M886,1064.604
				c-26.103-13.931-54.173-18.051-83.327-15.568c-20.892,1.781-40.801,7.195-58.571,18.808c-0.03,0.016-0.063,0.035-0.096,0.06
				c-3.869,2.643-1.466,9.029,3.185,8.418c0.029,0,0.052,0,0.077-0.007c23.512-3.453,68.016,9.612,69.829,10.351
				c30.008,0.075,63.034,0.017,94.969,0.017C904.313,1076.419,895.703,1069.782,886,1064.604z M1048.59,1048.997
				c-5.834-11.98-8.069-24.629-5.285-37.916c1.595-7.604-0.978-13.28-7.064-16.016c-5.604-2.504-12.242-0.852-15.948,5.58
				c-3.461,6-11.892,29.356,1.659,73.546c1.301,4.235,6.479,12.475,6.479,12.475h56.321c-0.012-2.695-0.238-11.115-0.238-17.062
				C1067.768,1070.281,1055.684,1063.569,1048.59,1048.997z M938.676,1024.762c-4.755-9.234-13.321-14.737-24.316-14.632
				c-7.81,0.074-11.24,5.223-8.431,12.441c1.108,2.843,2.693,5.578,4.472,8.07c11.505,16.092,25.623,50.844,25.771,56.024h27.86
				c-2.396-8.563-3.421-12.249-5.535-17.414C952.346,1054.228,946.097,1039.183,938.676,1024.762z M1029.639,855.17
				c0.392-9.657-0.439-19.373-1.132-29.031c-0.017-0.204-0.063-0.407-0.14-0.613c-1.008-2.647-4.839-2.527-6.24-0.06
				c-0.184,0.328-0.363,0.659-0.525,0.999c-0.41,0.906,0,2.173,0,3.283c0.017,17.555-1.473,35.102-7.668,51.517
				c-7.241,19.159-13.24,39.306-24.498,56.422c-29.029,44.115-31.727,126.834-20.096,148.979h33.164
				c-4.975-10.123-9.213-18.454-10.66-27.364c-5.638-34.788-1.786-68.569,10.928-101.492
				C1015.576,924.631,1028.197,891.294,1029.639,855.17z M25.872,990.731c-11.143-7.865-22.984-19.365-36.89-21.41v43.276
				c22.559,0.875,59.207,42.664,68.118,74.088h28.723C85.595,1084.935,80.612,1040.904,25.872,990.731z M292.545,1026.82
				c-11.091-7.044-24.103-10.584-37.332-10.766h-0.569c-20.446-0.22-41.367,9.279-53.334,26.077
				c-3.595,4.604-6.768,13.02-4.365,15.926c8.304,10.13,37.405-27.727,86.208-18.848
				C298.675,1042.23,309.322,1038.85,292.545,1026.82z M372.356,994.863c-0.156,0.016-0.325,0.038-0.475,0.075
				c-2.923,0.7-3.762,5.036-1.128,6.462c1.008,0.546,4.014,1.414,5.099,1.584c52.076,8.081,104.612,58.879,120.91,83.682h56.688
				c-1.437-2.937-2.827-4.885-3.893-6.688C509.461,1011.652,434.201,989.676,372.356,994.863z M90.427,1027.29
				c-0.029-0.007-0.045-0.022-0.078-0.03c-3.818-1.437-7.548,2.342-6.417,6.26c0.091,0.331,0.196,0.657,0.302,0.98
				c0.467,1.428,1.451,2.719,2.354,3.964c10.284,14.149,19.631,29.4,19.209,48.225h30.365
				C136.428,1065.72,112.047,1035.798,90.427,1027.29z M141.812,1047.812c-2.643-0.976-5.556,0.929-5.927,3.737
				c-0.094,0.776-0.083,1.503,0.184,2.131c5.349,12.564,21.068,32.972,22.716,32.977c26.696,0.084,47.587,0.061,74.296,0.061
				c-47.449-26.69-60.05-14.714-90.288-38.386C142.506,1048.115,142.173,1047.938,141.812,1047.812z M300.699,1067.059
				c-0.322,0.064-0.643,0.196-0.952,0.369c-3.081,1.767-2.652,6.564,0.662,7.83c0.366,0.135,0.712,0.219,1.068,0.219
				c11.829,0.091,32.933,9.126,39.026,11.118c15.93,0.218,38.475,0.069,54.419,0.099
				C370.444,1067.042,321.957,1062.769,300.699,1067.059z M398.502,1023.207c-6.253-1.858-13.007-2.213-19.572-2.674
				c-1.653-0.114-4.164,1.736-4.953,3.34c-0.528,1.056,0.999,3.583,2.198,4.911c1.445,1.596,3.559,2.592,5.323,3.904
				c18.604,13.816,20.802,21.691,41.358,53.997h52.792C474.715,1084.859,430.758,1032.818,398.502,1023.207z M256.687,933.677
				c3.339-5.276,9.175-10.625,8.905-16.867c-2.885-7.688-16.459,7.155-20.827,9.241c-18.695,12.985-38.965,17.804-61.088,11.051
				c-4.837-1.357-10.026-3.191-14.85-3.313l-0.481-0.009c-9.891-0.331-17.081,6.946-10.897,16.294
				c14.694,18.76,43.332,21.656,63.793,12.611C236.09,956.333,247.582,946.457,256.687,933.677z M637.217,925.356
				c1.223,0.769,3.478-0.93,6.076-4.247c2.536-3.191,5.104-7.375,7.458-10.922c18.998-29.242,46.16-50.035,77.479-63.581
				c23.034-11.619,53.555-10.67,73.563-27.572c16.885-17.888-3.668-35.654-23.366-35.439
				c-67.816,0.717-120.484,67.596-140.435,127.978c-1.132,3.849-3.08,11.345-0.912,13.69L637.217,925.356z M1084.74,754.437
				c-0.002-26.525,0.025-53.049-0.053-79.571c-0.012-2.818-0.098-7.989-0.098-11.317c-10.85-16.318-28.67-49.299-53.2-67.523
				c-8.065-5.994-16.999-9.271-26.807-10.497c-13.071-1.626-26.802,4.592-32.029,14.424c-4.153,7.789-2.132,17.092,4.39,21.085
				c48.082,29.487,81.603,70.581,97.91,124.829c9.465,31.499,11.596,63.503,0.43,95.116c-4.01,11.357-10.221,21.926-15.051,33.02
				c-0.377,0.866-0.304,1.931-0.098,3.056c0.379,2.031,2.443,3.294,4.391,2.603c0.896-0.313,1.703-0.721,2.246-1.342
				c2.287-2.625,13.344-12.909,17.818-22.406C1086.354,829.053,1084.744,781.406,1084.74,754.437z M670.477,1033.449
				c15.116-95.372,128.84-145.669,213.466-109.981c4.757,2.082,17.69,7.03,14.954-2.159c-3.435-7.067-10.886-12.563-16.914-17.818
				c-18.005-14.012-42.624-23.147-65.763-23.535h-0.497c-74.754-1.667-156.611,41.58-165.615,118.244
				c-0.83,11.241,0.777,22.493,5.457,33.438C659.769,1041.883,667.468,1046.321,670.477,1033.449z M757.684,958.615
				c42.629-5.809,81.443,7.563,116,32.372c5.662,4,11.813,8.39,18.375,10.715c16.731,6.91,36.257-6.39,33.579-24.448
				c-1.387-10.312-10.864-19.297-19.954-25.216c-21.65-14.232-48.031-19.737-73.46-19.812h-0.521
				c-28.844,1.132-60.783,5.239-85.358,21.638c-1.581,1.556-2.02,2.943-1.143,3.859
				C747.354,959.801,754.022,958.982,757.684,958.615z M1084.719,1012.598c0-13.847,0.113-30.305-0.176-43.276
				c-11.627-0.568-18.789,1.858-25.225,5.133c-10.514,5.346-11.667,16.687-3.725,25.594
				C1063.074,1008.43,1072.813,1011.774,1084.719,1012.598z M1043.295,923.392c-0.151,0.153-0.251,0.35-0.315,0.582
				c-0.55,2.002,1.275,3.82,3.344,3.684c0.483-0.029,0.938-0.118,1.347-0.31c8.357-3.872,16.201-8.97,24.91-11.952
				c5.994-2.051,8.01-2.853,12.008-3.767v-19.903C1068.148,898.295,1055.141,911.53,1043.295,923.392z M140.167,67.796
				c10.161,12.004,22.583,22.194,34.596,32.501c7.383,6.327,16.792,7.197,25.671,3.508c3.538-1.466,7.367-5.431,8.295-8.983
				c0.706-2.7-2.197-7.404-4.826-9.706c-5.285-4.632-11.701-7.946-17.242-12.311c-26.783-21.092-42.492-49.092-50.429-81.849
				h-30.508c0.301,2.846,0.36,5.737,0.926,8.532C111.883,25.161,123.442,48.037,140.167,67.796z M972.027,742.031
				c-0.297-6.344-2.006-21.843-7.895-22.223c-1.092,0.197-2.098,1.457-2.926,3.489c-2.011,5.255-2.465,11.37-3.785,17.079
				c-4.437,20.634-12.065,40.967-31.707,51.083c-4.041,2.455-8.13,4.938-11.123,7.995c-7.605,7-5.897,19.012,2.343,24.483
				c9.231,6.282,21.679,2.117,29.75-4.417c21.174-18.222,25.36-49.883,25.366-76.933L972.027,742.031z M113.179,1013.819
				c4.244,16.204,22.613,27.172,38.674,27.748l0.544,0.015c24.409,0.31,44.155-14.066,54.212-35.128
				c1.322-3.136,4.543-9.183,1.471-11.623c-2.377-1.396-8.854,3.903-12.028,6.191c-13.885,10.275-25.88,14.423-42.338,9.226
				c-9.454-2.641-17.971-8.717-27.455-10.751C117.832,997.632,111.217,1005.449,113.179,1013.819z M159.013,875.088
				c-4.698,3.115-13.697,11.379-3.361,13.375c49.674-0.013,93.034-39.083,91.719-89.972l-0.006-0.521
				c-0.252-14.136-3.917-28.23-11.204-42.91c-6.742-13.19-14.295-9.098-13.486,4.56
				C223.674,805.821,195.638,848.488,159.013,875.088z M187.597,789.942c2.591,2.091,6.898,5.763,10.081,3.729
				c1.424-1.131,1.156-3.939,0.2-6.981c-3.886-10.716-5.953-22.213-2.548-33.268c3.836-13.831,14.997-24.03,20.596-36.958
				c4.575-9.469,3.541-22.03-3.291-30.171c-6.909-7.346-16.31-0.776-22.743,4.909c-14.466,12.842-22.264,31.111-22.922,50.389
				l-0.008,0.544C167.182,760.589,174.021,777.804,187.597,789.942z M394.273,979.188c9.831,1.932,20.401,0.021,30.398-0.097
				c48.79-2.078,81.21-5.775,114.688-44.683c14.24-13.583,29.908-25.517,48.653-32.103c11.581-3.845,23.222-8.315,31.959-17.14
				c4.31-4.405,9.218-9.885,8.223-13.228l-0.089-0.17c-2.419-1.841-6.453,0.598-9.283,1.307
				c-21.737,7.38-45.167,8.368-67.905,10.797c-40.393,5.016-63.082,22.311-92.135,49.16c-18.377,13.141-38.209,25.097-59.249,33.326
				C392.146,968.489,381.897,975.225,394.273,979.188z M685.415,820.742c10.774-9.558-3.563-10.609-10.527-9.528
				c-41.407,5.958-80.249-14.701-120.791-18.054l-0.498-0.01c-11.174,0.131-22.454,1.934-33.554,5.227
				c-13.559,4.16-26.374,11.621-36.45,21.668c-15.8,16.277-1.71,15.833,12.499,11.204c63.769-18.467,100.388,30.6,169.699,0.362
				C672.709,828.508,679.748,825.377,685.415,820.742z M182.462,645.643c-0.127,10.798-3.003,21.466-8.411,31.599
				c-1.236,2.438-3.217,7.217-0.634,8.557c9.755,1.938,22.514-14.724,26.014-23.114c13.323-32.252,9.893-68.419-3.931-99.864
				c-9.755-23.052-23.188-45.346-23.686-71.148v-0.511c-0.15-11.226,4.833-23.841,13.284-33.348
				c4.734-5.797,11.914-10.875,12.453-18.886c-1.243-14.75-22.655-3.851-29.905-0.045c-6.914,3.988-12.773,9.263-17.095,16.141
				c-12.424,22.063-11.065,50.492-5.087,74.378c9.454,32.648,25.431,63.043,34.407,95.75
				C181.632,631.836,182.583,638.813,182.462,645.643z M1027.684,961.113c-0.459,2.341,1.721,4.357,4.1,4.123
				c0.266-0.032,0.529-0.061,0.793-0.105c0.758-0.138,1.334-1.112,2.074-1.593c31.492-20.373,47.648-17.404,49.873-17.789v-23.18
				c-15.979,4.138-29.013,12.262-40.998,22.086c-5.6,4.588-10.496,10.078-15.385,15.455
				C1027.902,960.366,1027.763,960.714,1027.684,961.113z M464.1,147.327c-0.62,3.676-0.135,7.525-0.166,11.294
				c3.715-1.909,8.094-3.108,11.037-5.849c15.206-14.202,23.27-32.487,28.366-52.242c5.957-23.065-13.506-91.903-27.694-109.574
				h-52.786c3.958,4.948,7.447,9.837,11.326,14.837C466.924,47.967,472.781,95.725,464.1,147.327z M523.435,57.309
				c-0.288,2.125,0.228,4.403,0.761,6.544c2.385,9.477,11.514,12.428,20.668,6.742c7.937-4.93,12.979-11.627,15.784-19.665
				c7.313-20.935,4.713-40.881-7.2-59.974H496.76C497.152-8.268,526.728,33.059,523.435,57.309z M743.941,30.981
				c32.059-4.006,63.171-15.193,96.151-12.573c0.446,0.035,0.904-0.1,1.369-0.34c2.396-1.227,2.632-4.675,0.477-6.291
				c-0.393-0.287-0.794-0.484-1.211-0.52c-10.279-0.976-20.627-2.121-30.926-1.922c-30.724,0.607-61.487,1.431-91.481-6.549
				c-9.975-2.65-19.765-6.393-28.896-11.831h-72.866C653.143,20.168,705.784,35.74,743.941,30.981z M270.538,36.567
				c19.538-0.655,37.921-5.732,54.322-16.718c1.849-1.238,2.701-3.952,4.017-5.978c-2.177-0.41-4.531-1.556-6.526-1.103
				c-21.682,4.919-42.745,2.5-62.862-6.251c-9.3-4.057-17.636-10.306-26.407-15.562h-74.477
				C199.36,20.664,234.031,37.78,270.538,36.567z M401.584,68.955c1.586,20.691-3.088,39.934-17.685,55.86
				c-0.143,0.155-0.268,0.34-0.36,0.54c-1.303,2.66,1.372,5.58,4.289,5.09c0.33-0.061,0.646-0.121,0.965-0.189
				c0.786-0.163,1.406-1.037,2.108-1.568c39.796-30.015,51.864-99.262,4.023-137.731h-54.42
				C377.99,13.004,398.744,31.753,401.584,68.955z M908.4,38.419c4.206,4.655,6.626,9.337,10.218,13.783
				c0.295,0.359,0.661,0.664,1.067,0.936c2.163,1.435,5.251,0.521,6.047-1.944c0.104-0.33,0.159-0.645,0.147-0.956
				c-0.205-6.592-3.189-36.882-14.239-59.282h-94.676C826.571-6.449,893.143,19.971,908.4,38.419z M829.76,107.356
				c-12.241,6.301-21.644,29.486-3.911,34.653c12.633,2.31,24.336-6.042,36.406-8.57c14.442-3.895,29.061-3.825,43.09,0.854
				c5.996,1.347,16.144,7.906,21.372,3.999l0.172-0.238c1.547-2.659-1.225-6.839-3.17-9.31
				C901.805,102.43,859.764,89.457,829.76,107.356z M1021.914,76.534c14.941,18.007,43.605,19.47,62.65,13.919
				c0.279-10.962,0.154-24.503,0.154-36.325c-16.336-1.021-28.762-8.464-42.006-13.105c-3.734-1.316-7.414-3.711-11.365-3.493
				c-13.327,0.754-17.947,10.953-16.676,21.89C1015.359,65.376,1018.087,71.923,1021.914,76.534z M1084.744,227.005
				c-21.258,18.307-36.865,39.274-48.944,62.688c-4.767,9.251-8.058,19.701-9.661,29.975c-1.033,6.643,0.921,14.556,3.816,20.855
				c5.235,11.338,19.096,12.38,26.496,2.262c4.502-6.16,7.971-13.236,10.959-20.294c4.385-10.345,8.08-31.158,17.543-50.502
				C1084.59,258.865,1084.744,241.318,1084.744,227.005z M971.478,95.651c-0.31,0.28-0.538,0.66-0.701,1.106
				c-1.114,3.011,1.611,6.056,4.796,5.64c1.229-0.159,2.354-0.458,3.224-1.108c33.864-25.034,44.089-73.16,23.706-110.333h-33.163
				c3.622,4.99,7.427,9.861,10.83,15.002C999.805,35.576,997.439,72.604,971.478,95.651z M1084.752,22.71V-9.044h-56.321
				C1040.823,9.765,1060.271,22.155,1084.752,22.71z M931.084,108.854c4.132,5.394,8.465,10.787,13.477,15.347
				c24.548,22.316,54.199,33.289,86.573,37.563c16.071,2.129,32.981,6.251,53.419,1.654c0.459-12.981,0.107-35.433,0.107-49.154
				c-56.043,17.382-107.094,12.765-146.771-11.791c-0.634-0.396-1.435-0.52-2.313-0.52c-2.988,0-5.458,2.64-4.999,5.587
				C930.657,108.054,930.813,108.499,931.084,108.854z M935.11,79.004c-0.256,9.192,6.541,14.423,15.743,13.535
				c6.457-0.62,10.982-4.103,14.566-9.253c13.626-19.598,14.672-41.301,9.483-63.472c-2.326-9.918-7.168-19.255-10.869-28.859
				h-27.86c2.83,16.64,6.302,44.766,2.281,65.212C936.964,63.719,935.329,71.366,935.11,79.004z"/>
		</g>
	</g>
</g>
</svg>
